<svg width="1043" height="244" viewBox="0 0 1043 244" fill="none" xmlns="http://www.w3.org/2000/svg">
<path d="M501.302 80.04C501.302 75.6218 504.884 72.04 509.302 72.04H520.686C525.016 72.04 528.56 75.485 528.682 79.8132L529.076 93.699C529.109 94.8445 530.932 95.1054 531.358 94.0414C533.463 88.778 536.138 84.5242 539.382 81.28C545.729 75.12 554.222 72.04 564.862 72.04H571.142C575.56 72.04 579.142 75.6218 579.142 80.04V90.64C579.142 95.0583 575.56 98.64 571.142 98.64H564.862C557.395 98.64 551.142 99.8534 546.102 102.28C541.062 104.707 537.235 108.44 534.622 113.48C532.195 118.52 530.982 125.053 530.982 133.08V213C530.982 217.418 527.4 221 522.982 221H509.302C504.884 221 501.302 217.418 501.302 213V80.04Z" fill="black"/>
<path d="M387.04 225.48C369.12 225.48 353.347 221.373 339.72 213.16C326.093 204.76 315.453 192.813 307.8 177.32C300.147 161.827 296.32 143.347 296.32 121.88C296.32 100.6 300.053 82.2133 307.52 66.72C315.173 51.04 325.813 39 339.44 30.6C353.067 22.0133 369.027 17.72 387.32 17.72C411.96 17.72 431.093 23.88 444.72 36.2C456.434 46.7904 464.63 60.8983 469.309 78.5235C470.551 83.2007 467.025 87.668 462.193 87.9246L446.647 88.75C442.655 88.962 439.172 86.175 438.061 82.3346C435.046 71.9113 429.985 63.5331 422.88 57.2C414.293 49.36 402.44 45.44 387.32 45.44C375.187 45.44 364.64 48.52 355.68 54.68C346.907 60.84 340 69.6133 334.96 81C330.107 92.3866 327.68 106.013 327.68 121.88C327.68 137.747 330.107 151.373 334.96 162.76C340 174.147 347 182.827 355.96 188.8C364.92 194.773 375.28 197.76 387.04 197.76C403.093 197.76 415.507 193.56 424.28 185.16C431.761 177.99 436.9 168.608 439.697 157.014C440.663 153.007 444.222 150.047 448.338 150.265L463.835 151.088C468.582 151.34 472.091 155.662 470.996 160.287C468.279 171.767 464.001 181.924 458.16 190.76C450.88 201.773 441.267 210.36 429.32 216.52C417.373 222.493 403.28 225.48 387.04 225.48Z" fill="black"/>
<path d="M660.486 224.36C645.926 224.36 633.326 221.187 622.686 214.84C612.233 208.493 604.113 199.44 598.326 187.68C592.726 175.92 589.926 162.2 589.926 146.52C589.926 130.84 592.726 117.213 598.326 105.64C604.113 93.88 612.233 84.8266 622.686 78.48C633.14 71.9466 645.46 68.68 659.646 68.68C673.086 68.68 684.94 71.8533 695.206 78.2C705.473 84.36 713.406 93.32 719.006 105.08C724.793 116.84 727.686 131.027 727.686 147.64C727.686 151.815 724.302 155.2 720.126 155.2H622.831C621.687 155.2 620.773 156.162 620.857 157.304C621.853 170.816 625.636 181.035 632.206 187.96C639.3 195.24 648.82 198.88 660.766 198.88C669.54 198.88 676.82 196.827 682.606 192.72C686.697 189.817 689.902 186.214 692.22 181.911C693.954 178.693 697.199 176.362 700.847 176.595L715.551 177.53C720.64 177.854 724.158 182.823 722.049 187.465C717.674 197.093 711.06 205.191 702.206 211.76C690.82 220.16 676.913 224.36 660.486 224.36ZM621.057 130.541C620.865 131.735 621.8 132.8 623.008 132.8H694.18C695.34 132.8 696.26 131.814 696.148 130.66C694.966 118.487 691.199 109.4 684.846 103.4C678.313 97.0533 669.913 93.88 659.646 93.88C649.006 93.88 640.233 97.24 633.326 103.96C627.011 110.1 622.921 118.961 621.057 130.541Z" fill="black"/>
<path d="M817.96 224.36C803.4 224.36 790.8 221.187 780.16 214.84C769.707 208.493 761.587 199.44 755.8 187.68C750.2 175.92 747.4 162.2 747.4 146.52C747.4 130.84 750.2 117.213 755.8 105.64C761.587 93.88 769.707 84.8266 780.16 78.48C790.613 71.9466 802.933 68.68 817.12 68.68C830.56 68.68 842.413 71.8533 852.68 78.2C862.947 84.36 870.88 93.32 876.48 105.08C882.267 116.84 885.16 131.027 885.16 147.64C885.16 151.815 881.775 155.2 877.6 155.2H780.305C779.16 155.2 778.247 156.162 778.331 157.304C779.327 170.816 783.11 181.035 789.68 187.96C796.773 195.24 806.293 198.88 818.24 198.88C827.013 198.88 834.293 196.827 840.08 192.72C844.171 189.817 847.375 186.214 849.694 181.911C851.428 178.693 854.673 176.362 858.321 176.595L873.025 177.53C878.114 177.854 881.632 182.823 879.522 187.465C875.148 197.093 868.534 205.191 859.68 211.76C848.293 220.16 834.387 224.36 817.96 224.36ZM778.531 130.541C778.339 131.735 779.273 132.8 780.482 132.8H851.654C852.814 132.8 853.733 131.814 853.621 130.66C852.44 118.487 848.673 109.4 842.32 103.4C835.787 97.0533 827.387 93.88 817.12 93.88C806.48 93.88 797.707 97.24 790.8 103.96C784.484 110.1 780.395 118.961 778.531 130.541Z" fill="black"/>
<path d="M967.034 224.36C954.34 224.36 943.234 221.187 933.714 214.84C924.38 208.493 917.194 199.533 912.154 187.96C907.3 176.2 904.874 162.387 904.874 146.52C904.874 130.653 907.394 116.933 912.434 105.36C917.474 93.6 924.66 84.5466 933.994 78.2C943.327 71.8533 954.34 68.68 967.034 68.68C977.3 68.68 986.447 70.8266 994.474 75.12C1000.01 78.0833 1004.62 81.8469 1008.29 86.4108C1009.6 88.0308 1012.67 87.1621 1012.67 85.0827V30.2C1012.67 25.7817 1016.26 22.2 1020.67 22.2H1034.35C1038.77 22.2 1042.35 25.7817 1042.35 30.2V216.36C1042.35 220.778 1038.77 224.36 1034.35 224.36H1022.38C1018.06 224.36 1014.52 220.935 1014.38 216.621L1014.05 206.34C1013.98 204.275 1010.93 203.506 1009.68 205.152C1005.88 210.162 1001 214.325 995.034 217.64C986.82 222.12 977.487 224.36 967.034 224.36ZM974.874 198.6C982.9 198.6 989.714 196.547 995.314 192.44C1000.91 188.333 1005.21 182.36 1008.19 174.52C1011.18 166.68 1012.67 157.347 1012.67 146.52C1012.67 135.32 1011.18 125.893 1008.19 118.24C1005.21 110.4 1000.91 104.52 995.314 100.6C989.714 96.4933 982.9 94.44 974.874 94.44C962.927 94.44 953.407 99.1066 946.314 108.44C939.22 117.587 935.674 130.28 935.674 146.52C935.674 162.573 939.22 175.267 946.314 184.6C953.407 193.933 962.927 198.6 974.874 198.6Z" fill="black"/>
<path fill-rule="evenodd" clip-rule="evenodd" d="M156.683 25.8912C156.683 20.7784 153.949 16.6984 150.153 15.8682L50.8845 0.803281C44.4474 -0.207939 40.8385 -0.418278 34.4022 1.07664C21.948 4.53448 19.4689 5.55156 7.16797 9.52026C1.74137 10.8567 0 14.8659 0 20.1609L0.111367 226.189C0.111367 231.049 3.3005 234.218 7.66406 235.676C14.0626 237.863 21.4027 240.262 28.5807 242.489C33.5011 244.038 38.8467 244.038 45.3161 243.664C52.231 243.259 92.7685 236.617 149.596 229.044C154.101 228.447 156.663 224.772 156.663 221.087L156.713 25.8912H156.683ZM132.658 192.425C134.521 192.222 139.148 190.127 139.148 184.639V59.9491C139.279 57.4788 137.528 52.9533 132.445 52.5382L75.861 44.5097C70.7786 44.2971 68.0552 47.9924 68.0552 51.4043V194.055C68.2678 196.525 70.161 200.362 75.2333 199.542L132.658 192.425Z" fill="black"/>
</svg>
