<svg width="23" height="18" viewBox="0 0 23 18" fill="none" xmlns="http://www.w3.org/2000/svg">
<path d="M18.6443 2.09399C17.2683 1.46467 15.807 1.006 14.2817 0.75C14.0896 1.08067 13.8763 1.52866 13.727 1.88067C12.1046 1.64599 10.4939 1.64599 8.89394 1.88067C8.7446 1.52866 8.52059 1.08067 8.33925 0.75C6.80328 1.006 5.34194 1.46467 3.97555 2.09399C1.21289 6.16865 0.466219 10.1473 0.839551 14.0726C2.67421 15.4059 4.44489 16.2166 6.18463 16.75C6.61129 16.174 6.9953 15.5553 7.32597 14.9046C6.69663 14.67 6.0993 14.382 5.5233 14.0406C5.67263 13.934 5.82197 13.8167 5.96064 13.6993C9.43796 15.2887 13.2043 15.2887 16.639 13.6993C16.7883 13.8167 16.927 13.934 17.0763 14.0406C16.5003 14.382 15.903 14.67 15.2736 14.9046C15.6043 15.5553 15.9883 16.174 16.415 16.75C18.1536 16.2166 19.935 15.4059 21.76 14.0726C22.2187 9.5287 21.0336 5.58202 18.6443 2.09399ZM7.80596 11.6513C6.76061 11.6513 5.90728 10.702 5.90728 9.5393C5.90728 8.3767 6.73928 7.42731 7.80596 7.42731C8.86194 7.42731 9.72591 8.3767 9.70457 9.5393C9.70457 10.702 8.86194 11.6513 7.80596 11.6513ZM14.815 11.6513C13.7696 11.6513 12.9152 10.702 12.9152 9.5393C12.9152 8.3767 13.7483 7.42731 14.815 7.42731C15.871 7.42731 16.735 8.3767 16.7136 9.5393C16.7136 10.702 15.8817 11.6513 14.815 11.6513Z" stroke="black" stroke-width="1.5" stroke-linejoin="round"/>
</svg>
