<svg width="20" height="20" viewBox="0 0 20 20" fill="none" xmlns="http://www.w3.org/2000/svg">
<path d="M14.3359 7.15039H17.6641C18.098 7.15042 18.45 7.50168 18.4502 7.93555V11.2637C18.4502 11.6977 18.0981 12.0498 17.6641 12.0498H16.6367C16.0304 12.0498 15.4482 12.291 15.0195 12.7197L12.7197 15.0195C12.291 15.4482 12.0498 16.0304 12.0498 16.6367V17.6641C12.0498 18.0981 11.6977 18.4502 11.2637 18.4502H7.93555C7.50168 18.45 7.15042 18.098 7.15039 17.6641V14.3359C7.15042 13.902 7.50168 13.55 7.93555 13.5498H8.96387C9.56999 13.5498 10.1514 13.3094 10.5801 12.8809L12.8809 10.5801C13.3094 10.1514 13.5498 9.56999 13.5498 8.96387V7.93555C13.55 7.50168 13.902 7.15042 14.3359 7.15039ZM7.93555 0.75H11.2637C11.6978 0.75 12.0498 1.10204 12.0498 1.53613V4.86426C12.0497 5.29824 11.6977 5.65039 11.2637 5.65039H10.2363C9.63017 5.65039 9.0488 5.8908 8.62012 6.31934L6.31934 8.62012C5.8908 9.0488 5.65039 9.63017 5.65039 10.2363V11.2637C5.65039 11.6977 5.29824 12.0497 4.86426 12.0498H1.53613C1.10204 12.0498 0.75 11.6978 0.75 11.2637V7.93555C0.750245 7.50166 1.10219 7.15039 1.53613 7.15039H2.56348C3.16976 7.15039 3.75196 6.90918 4.18066 6.48047L6.48047 4.18066C6.90918 3.75196 7.15039 3.16976 7.15039 2.56348V1.53613C7.15039 1.10219 7.50166 0.750245 7.93555 0.75Z" stroke="black" stroke-width="1.5"/>
</svg>
